# xmcd
#
# Track frame offsets:
#	150
#	7672
#	37801
#	52688
#	80157
#	98009
#	119578
#	143872
#	167976
#	183501
#	220585
#	244656
#	261713
#	298504
#	318806
#
# Disc length: 4564 seconds
#
# Revision: 0
# Processed by: cddbd v1.5.2PL0 Copyright (c) Steve Scherf et al.
# Submitted via: EasyCDDAExtractor 9.0.0.1
#
DISCID=ca11d20f
DTITLE=Saxon - Sala Arena Madrid 07-11-04 Disc 1
DYEAR=2004
DGENRE=Hard Rock
TTITLE0=The Return
TTITLE1=Lionheart
TTITLE2=Backs To The Wall
TTITLE3=Power and The Glory 
TTITLE4=Motorcycle Man
TTITLE5=Beyond The Grave
TTITLE6=Flying On The Edge
TTITLE7=Conquistadores
TTITLE8=Heavy Metal Thunder
TTITLE9=Broken Heroes
TTITLE10=Dragon's Liar
TTITLE11=Man And Machine
TTITLE12=To Live By The Sword - Unleash The Beast
TTITLE13=Ride Like The Wind
TTITLE14=Rock The Nations
EXTD=
EXTT0=
EXTT1=
EXTT2=
EXTT3=
EXTT4=
EXTT5=
EXTT6=
EXTT7=
EXTT8=
EXTT9=
EXTT10=
EXTT11=
EXTT12=
EXTT13=
EXTT14=
PLAYORDER=
